<svg xmlns="http://www.w3.org/2000/svg" viewBox="0 0 64 64" fill="none">
  <rect width="64" height="64" rx="16" fill="#0c0a09"/>
  <path d="M32 10c-6 0-11 4.5-11 10.5 0 2.2.7 4.2 2 5.8L20 32h24l-3-5.7c1.3-1.6 2-3.6 2-5.8C43 14.5 38 10 32 10z" fill="#f59e0b"/>
  <ellipse cx="32" cy="21" rx="13" ry="3.5" fill="#fbbf24" opacity="0.5"/>
  <rect x="18" y="32" width="28" height="4" rx="2" fill="#f59e0b"/>
  <path d="M22 36v14c0 2.2 4.5 4 10 4s10-1.8 10-4V36" stroke="#f59e0b" stroke-width="2.5" fill="none"/>
  <circle cx="44" cy="44" r="3" fill="#22d3ee" opacity="0.9"/>
  <circle cx="48" cy="38" r="1.5" fill="#22d3ee" opacity="0.6"/>
</svg>
