<svg xmlns="http://www.w3.org/2000/svg" viewBox="0 0 1024 1024" fill="none">
  <rect width="1024" height="1024" rx="224" fill="#18181b"/>
  <path
    d="M512 192c-88 0-160 72-160 160v96h64v-96c0-53 43-96 96-96s96 43 96 96v224c0 53-43 96-96 96h-32v64h32c88 0 160-72 160-160V352c0-88-72-160-160-160z"
    fill="#fafafa"
  />
  <rect x="480" y="608" width="64" height="224" rx="32" fill="#a1a1aa"/>
  <path
    d="M320 736l96-96 45 45-96 96-45-45zM704 736l-96-96 45-45 96 96-45 45z"
    fill="#fafafa"
  />
</svg>
